<svg xmlns="http://www.w3.org/2000/svg" width="630" height="630"><defs><linearGradient id="d"><stop offset="0" stop-color="#1274f4"/><stop offset="1" stop-color="#00132c"/></linearGradient><linearGradient id="c"><stop offset="0" stop-color="#ab2302"/><stop offset="1" stop-color="#ab2302" stop-opacity="0"/></linearGradient><linearGradient id="a"><stop offset="0" stop-color="#ff8700"/><stop offset="1" stop-color="#d33b00"/></linearGradient><linearGradient id="b"><stop offset="0" stop-color="#eb6a0f"/><stop offset="1" stop-color="#a11700"/></linearGradient><linearGradient id="e"><stop offset="0" stop-color="#2994d1"/><stop offset="1" stop-color="#0d426c"/></linearGradient></defs><path d="M470.875 212.958l.077-.08c.07-.073.137-.145.206-.22.26-.278.513-.562.765-.847.94-1.064 1.84-2.162 2.713-3.28 3.072-3.93 5.82-8.107 8.27-12.45 7.713-13.68 12.35-29.158 12.846-44.854.54-17.093-4.565-34-12.213-49.297-2.674-5.348-5.675-10.532-8.998-15.5-.97-1.452-1.967-2.885-3.004-4.288-.28-.38-.563-.758-.85-1.13-.077-.1-.153-.198-.23-.295l-.084-.106c-13.284-.638-26.74 1.44-39.01 6.57-9.377 3.923-17.91 9.572-26.285 15.33-8.86 6.092-15.494 14.94-20.923 24.22l-7.41 15 48.034 29.653c11.817 8.898 23.092 18.518 33.718 28.81 3.116 3.016 6.176 6.09 9.15 9.247.805.854 1.604 1.713 2.39 2.583.208.228.414.457.618.687.073.08.147.165.22.247" color="#000" overflow="visible"/><path d="M465.134 201.795c.02-.024.043-.045.065-.067l.172-.184c.217-.234.43-.47.64-.71.784-.89 1.536-1.806 2.266-2.74 2.56-3.278 4.854-6.763 6.896-10.387 6.43-11.406 10.294-24.312 10.71-37.4.45-14.252-3.807-28.35-10.182-41.105-2.23-4.46-4.732-8.785-7.504-12.93-.81-1.21-1.642-2.407-2.507-3.58-.234-.317-.47-.632-.71-.945-.065-.082-.128-.165-.193-.246l-.07-.09c-19.546-.94-38.338 7.178-54.46 18.266-7.387 5.08-12.918 12.455-17.446 20.19-1.672 2.86-3.205 5.802-4.59 8.812-.41.89-.806 1.787-1.183 2.69-.104.248-.205.496-.304.744-.036.09-.074.184-.108.275l40.063 24.733c9.852 7.42 19.253 15.44 28.112 24.018 2.6 2.517 5.153 5.083 7.635 7.716.672.713 1.34 1.43 1.997 2.157.173.192.345.383.516.576l.186.21" color="#000" fill="#fff" overflow="visible"/><path d="M448.532 188.08c2.518-3.613 4.958-7.332 6.488-11.462 2.234-6.032 2.84-12.542 3.044-18.97.21-6.658.406-13.5-1.742-19.803-1.79-5.25-5.675-9.533-10.034-12.965-5.667-.272-11.455.146-16.76 2.155-3.912 1.48-7.41 3.85-10.856 6.218-7.122 4.898-12.45 12.033-15.83 19.988l22.29 13.76 23.4 21.08z" color="#000" fill="#fff" stroke="#000" overflow="visible"/><path d="M156.1 212.958c-.025-.028-.05-.054-.076-.08-.07-.073-.138-.145-.206-.22-.26-.278-.514-.562-.766-.847-.938-1.064-1.84-2.162-2.713-3.28-3.073-3.93-5.82-8.107-8.27-12.45-7.714-13.68-12.35-29.158-12.847-44.854-.54-17.093 4.565-34 12.213-49.297 2.674-5.348 5.674-10.532 8.997-15.5.97-1.452 1.968-2.885 3.005-4.288.28-.38.563-.758.85-1.13.077-.1.153-.198.23-.295l.083-.106c13.285-.638 26.742 1.44 39.012 6.57 9.376 3.923 17.91 9.572 26.285 15.33 8.86 6.092 15.492 14.94 20.922 24.22l7.41 15-48.035 29.653c-11.817 8.898-23.092 18.518-33.717 28.81-3.116 3.016-6.176 6.09-9.15 9.247-.806.854-1.604 1.713-2.392 2.583-.206.228-.412.457-.616.687-.073.08-.147.165-.22.247" color="#000" overflow="visible"/><path d="M161.842 201.795c-.022-.024-.044-.045-.066-.067-.058-.06-.115-.123-.172-.184-.217-.234-.43-.47-.64-.71-.785-.89-1.536-1.806-2.266-2.74-2.562-3.278-4.854-6.763-6.897-10.387-6.428-11.406-10.293-24.312-10.707-37.4-.45-14.252 3.805-28.35 10.18-41.105 2.23-4.46 4.733-8.785 7.504-12.93.81-1.21 1.643-2.407 2.508-3.58.234-.317.47-.632.712-.945l.19-.246.072-.09c19.545-.94 38.337 7.178 54.46 18.266 7.386 5.08 12.917 12.455 17.444 20.19 1.674 2.86 3.207 5.802 4.592 8.812.41.89.806 1.787 1.183 2.69.102.248.204.496.303.744l.108.275-40.063 24.733c-9.852 7.42-19.252 15.44-28.112 24.018-2.6 2.517-5.152 5.083-7.634 7.716-.67.713-1.338 1.43-1.996 2.157l-.517.576c-.06.07-.124.14-.185.21" color="#000" fill="#fff" overflow="visible"/><path d="M178.443 188.08c-2.518-3.613-4.957-7.332-6.487-11.462-2.234-6.032-2.84-12.542-3.044-18.97-.21-6.658-.407-13.5 1.742-19.803 1.79-5.25 5.675-9.533 10.034-12.965 5.667-.272 11.455.146 16.76 2.155 3.91 1.48 7.41 3.85 10.856 6.218 7.122 4.898 12.448 12.033 15.83 19.988L201.843 167l-23.4 21.08z" color="#000" fill="#fff" stroke="#000" overflow="visible"/><path d="M447.233 370.47c23.557-21.48 67.88-24.18 72.902-28.64 4.886-4.34-4.687-42.7-17.184-73.944s-28.12-60.405-84.357-104.146c-44.064-34.27-87.75-32.285-104.383-32.285-18.716 0-60.32-1.986-104.384 32.285-56.238 43.74-75.9 71.317-84.3 103.902-8.402 32.585-19.043 74.73-15.767 78.06 4.24 4.312 47.87 3.288 71.426 24.767 17.705 16.142 30.723 28.64 43.22 65.09 12.498 36.45 26.037 60.405 46.866 76.026 20.83 15.622 39.576 20.83 78.11 15.622 38.533-5.207 65.986-2.388 78.37 2.083 9.55 3.45 28.237 19.638 31.763 16.925 3.55-2.73-6.69-62.303-13.8-82.536-4.438-12.634-22.51-39.352-35.332-49.635 12.55-22.268 23.077-31.018 36.85-43.576z" color="#000" fill="#fff" overflow="visible"/><path d="M313.488 127.28s-39.086 1.014-60.957 15.594c-21.87 14.58-47.86 33.228-62.08 73.845-14.22 40.615-10.346 63.71-10.346 84.54 26.93 11.144 55.086 34.326 64.308 51.29 7.23 13.302 9.72 24.696 17.01 42.4 7.292 17.706 31.758 17.656 52.066 17.656 20.31 0 44.775.05 52.065-17.655 7.29-17.704 9.78-29.098 17.012-42.4 9.222-16.964 37.378-40.146 64.307-51.29 0-20.83 3.874-43.925-10.346-84.54-14.22-40.618-40.21-59.266-62.08-73.846-21.87-14.58-60.958-15.594-60.958-15.594z" color="#000" overflow="visible"/><path d="M190.027 295.976s47.398 23.462 61.978 49.498c7.29 13.018 12.768 26.886 15.622 35.41 7.288 21.76 24.75 21.78 44.002 21.87-8.3-15.676-5.904-26.59 1.82-34.368l-74.983-68.215zM436.875 295.976s-47.397 23.462-61.978 49.498c-7.29 13.018-12.767 26.886-15.622 35.41-7.287 21.76-24.75 21.78-44 21.87 8.297-15.676 5.902-26.59-1.824-34.368l74.986-68.215z" color="#000" fill="#fff" overflow="visible"/><path d="M306.014 137.72c-36.39.644-60.663 13.713-89.954 46.91-34.597 39.21-26.033 111.346-26.033 111.346 37.683 1.333 86.544 59.28 101.037 86.45 0 0 14.824 4.124 22.424 4.124s22.424-4.124 22.424-4.124c31.866-42.93 62.352-77.777 101.037-86.45 0 0 8.564-72.137-26.033-111.347-31.244-35.41-56.81-47.83-97.43-46.91-2.537.057-5.047-.044-7.473 0z" color="#000" fill="#fff" stroke="#000" overflow="visible"/><path d="M313.525 373.25c-7.61-.01-15.52 2.263-21.478 5.774-2.382 1.403-1.762 2.88 0 3.983 12.746 7.987 9.92 20.31 21.478 20.31 11.556 0 8.73-12.323 21.477-20.31 1.762-1.104 2.25-2.58-.133-3.983-5.96-3.51-13.777-5.77-21.345-5.774zM272.583 273.744a18.616 13.54 60 1 1-23.45 13.54 18.616 13.54 60 1 1 23.45-13.54z" color="#000" overflow="visible"/><path d="M262.16 285.07a4.947 4.947 0 1 1-9.894 0 4.947 4.947 0 1 1 9.894 0zM259.296 273.353a4.947 3.124 0 1 1-9.894 0 4.947 3.124 0 1 1 9.894 0z" color="#000" fill="#fff" overflow="visible"/><path d="M353.8 273.744a13.54 18.616 30 1 0 23.45 13.54 13.54 18.616 30 1 0-23.45-13.54z" color="#000" overflow="visible"/><path d="M365.264 285.07a4.947 4.947 0 1 1-9.894 0 4.947 4.947 0 1 1 9.894 0zM366.566 273.353a4.947 3.124 0 1 1-9.894 0 4.947 3.124 0 1 1 9.894 0z" color="#000" fill="#fff" overflow="visible"/><path d="M218.7 414.76c31.62 65.122 57.712 103.6 111.916 100.535 49.078-2.775 80.47-8.328 127.725 1.264l1.265 29.085-24.027-12.014-24.027-8.22-38.57-1.263-46.157 3.794-24.66-.632-30.983-15.175-29.718-34.144-21.498-53.114zM410.53 410.08s7.423-20.318 19.672-33.98c43.182-48.157 74.663-37.83 72.706-57.63-1-10.114-1.942-62.542-56.454-129.523 39.108 31.662 60.464 75.2 70.486 120.983l5.365 30.403-33.085 6.26-35.768 18.778z" color="#000" fill="#ab2202" overflow="visible"/><path d="M394.164 403.275s.797.305 2.366 1.03c1.57.725 3.91 1.877 6.91 3.714 3 1.836 6.654 4.37 10.758 7.877 4.103 3.505 8.653 8 13.375 13.53 3.532 4.115 7.263 8.834 10.85 14.334 3.588 5.5 7.04 11.78 9.72 19.067 2.4 6.567 4.21 13.748 5.956 21.287 1.776 7.656 3.437 15.82 4.948 24.49.14.807.28 1.615.418 2.424 1.33 7.825 2.553 15.723 3.288 23.72.24 2.582.452 5.263.393 8.035-.01.83-.064 1.788-.264 2.85.16.423-.284 1.477-1.59 2.894-1.95 1.067-3.524 1.168-4.387.732-1.497-.353-2.75-.903-3.797-1.444-3.188-1.59-6.063-3.488-8.824-5.305-3.237-2.12-6.395-4.263-9.59-6.246-2.725-1.672-5.3-3.278-7.944-4.206-8.857-3.23-18.652-3.997-28.516-4.48-16.128-.74-32.354.416-48.453 2.598-15.283 2.11-31.187 3.277-46.73-.01h-.002c-12.372-2.686-23.686-8.68-33.608-16.14-11.17-8.388-20.227-19.232-27.36-31.05-8.83-14.62-15.158-30.477-20.62-46.406-4.854-14.065-10.564-27.83-18.99-39.688-6.363-9.024-14.582-16.76-23.302-23.97-12.89-10.667-28.934-17.34-45.553-20.31-5.497-.98-11.16-1.538-16.907-2.213-1.823-.207-3.79-.44-5.847-.934-1.075-.03-2.82-.697-4.622-2.557-1.326-2.293-1.47-4.09-1.26-4.933-.075-2.27.075-4.45.27-6.525.597-6.556 1.71-12.994 2.966-19.332 3.316-16.795 7.833-33.443 14.214-49.44 6.754-16.94 15.137-33.403 26.167-48.155 16.64-22.177 37.53-40.606 59.164-57.43 18.46-14.386 40.07-24.876 63.07-29.678 8.317-1.73 16.758-2.737 25.205-3.15 6.132-.298 12.195-.238 18.175-.24 5.69-.006 11.46-.063 17.3.217 8.48.41 16.95 1.413 25.3 3.114 23.246 4.75 45.23 15.083 63.94 29.618 21.662 16.798 42.59 35.21 59.28 57.392 11.068 14.762 19.487 31.238 26.27 48.19 6.193 15.444 11.422 31.32 15.303 47.555 1.43 5.95 2.743 12.076 3.305 18.422.193 2.023.296 4.236.035 6.595.12 1.25-.468 3.27-2.38 5.446-1.9 1.44-3.622 1.98-4.784 2.077-2.017.41-3.93.603-5.698.785-5.468.583-10.836 1.18-16.014 2.253-17.11 3.502-33.102 12.052-46.4 23.594-6.433 5.583-12.182 11.993-17.373 18.863-6.126 8.107-11.704 16.748-17.502 25.368l-6.226-4.19c5.755-8.54 11.425-17.285 17.775-25.678 5.45-7.207 11.562-13.987 18.456-19.972 14.16-12.293 31.284-21.373 49.79-25.187 5.623-1.145 11.23-1.77 16.726-2.34 1.806-.195 3.48-.35 4.986-.668 1.034-.356 1.63-.33 1.405-.377-.205.662-.416.178-.025-.837.2-1.52.092-3.234-.05-5.102-.483-5.738-1.73-11.513-3.11-17.363-3.763-15.844-8.864-31.39-14.92-46.564-6.615-16.546-14.703-32.484-25.282-46.583-16.03-21.448-36.496-39.442-57.884-56.127-17.862-13.91-38.87-23.832-61.015-28.372-7.97-1.638-16.09-2.61-24.25-3.016-5.57-.28-11.227-.227-16.96-.232-6.03-.004-11.982-.074-17.844.21-8.13.387-16.218 1.338-24.15 2.98-21.895 4.515-42.59 14.547-60.324 28.31-21.416 16.66-41.917 34.636-58 56.09-10.616 14.11-18.74 30.06-25.385 46.616-6.224 15.516-10.65 31.775-13.94 48.27-1.24 6.235-2.326 12.448-2.895 18.657-.178 1.993-.323 3.9-.255 5.713.285 1.286-.007 1.862-.047 1.266-.514-.162.034-.28 1.03.2 1.52.385 3.226.573 5.062.798 5.67.67 11.458 1.255 17.278 2.293 17.566 3.13 34.58 10.28 48.462 21.73 8.95 7.38 17.536 15.536 24.4 25.224 8.906 12.66 14.865 26.96 19.748 41.297 5.397 15.74 11.517 31.21 20 45.243 6.818 11.276 15.337 21.554 25.752 29.354 9.43 7.055 19.945 12.704 31.222 15.103 14.384 3.15 29.6 1.98 44.656-.01 16.356-2.202 32.942-3.352 49.53-2.577 10.01.438 20.383 1.334 30.24 4.863 3.387 1.25 6.328 3.038 9.048 4.755 3.323 2.073 6.518 4.246 9.7 6.337 2.785 1.823 5.454 3.608 8.208 4.968.957.453 1.76.846 2.447.973.477-.143.448.115-.416.346-.627.895-.902 1-.573.585.11-.48.128-1.103.156-1.844.063-2.37-.136-4.83-.36-7.37-.7-7.757-1.892-15.51-3.2-23.282-.135-.8-.27-1.6-.41-2.4-1.484-8.585-3.06-16.666-4.708-24.253-1.642-7.53-3.235-14.514-5.353-20.807-2.306-6.905-5.39-12.992-8.628-18.424-3.238-5.433-6.636-10.208-9.857-14.44-4.33-5.656-8.45-10.338-12.185-14.07-3.734-3.73-7.077-6.53-9.84-8.62-2.762-2.09-4.94-3.485-6.405-4.387-1.464-.902-2.21-1.317-2.21-1.317z" color="#000" overflow="visible"/><path d="M229.37 257.53c.343-.837.744-1.67 1.208-2.492 2.102-3.393 4.83-5.89 7.525-7.776 4.847-3.34 10.496-4.377 15.64-3.843 2.214.188 4.386.575 6.495 1.132 1.94.512 3.475 1.628 4.32 2.89.846 1.26 1.014 2.65.472 3.843-.543 1.193-1.662 1.975-2.962 2.377-1.3.402-2.778.43-4.257.035-1.607-.43-3.23-.724-4.847-.85-3.553-.186-7.084.258-9.29 2.06-2.138 1.637-4.01 3.19-4.953 4.946-.24.37-.446.78-.623 1.22-.45 1.124-1.182 2.2-2.17 3.06-.986.86-2.208 1.478-3.516 1.39-1.306-.086-2.47-.895-3.134-2.328-.664-1.432-.78-3.524.095-5.664z" color="#000" overflow="visible"/><path d="M306.014 137.72c-34.812.616-58.58 12.682-86.217 42.785 43.67-23.742 54.55 33.11 93.69 35.698 39.142-2.588 50.022-59.44 93.692-35.698-27.637-30.103-51.405-42.17-86.217-42.786-2.426-.044-4.936.057-7.475 0-2.538.057-5.048-.044-7.474 0z" color="#000" fill="#fff" stroke="#000" overflow="visible"/><path d="M224.24 175.805c-2.694 2.785-5.42 5.66-8.188 8.797-34.597 39.21-26.004 111.372-26.004 111.372 5.423.19 11.07 1.597 16.82 3.872-2.924-5.343-6.035-14.017-7.746-27.995-3.794-30.98 5.01-65.125 18.92-84.094 2.87-3.91 4.842-7.965 6.198-11.95zM402.737 175.805c2.694 2.785 5.42 5.66 8.188 8.797 34.597 39.21 26.003 111.372 26.003 111.372-5.422.19-11.07 1.597-16.82 3.872 2.924-5.343 6.035-14.017 7.747-27.995 3.793-30.98-5.01-65.125-18.922-84.094-2.868-3.91-4.84-7.965-6.196-11.95z" opacity=".6" color="#000" fill="#ab2202" overflow="visible"/><path d="M388.88 261.073c-.177-.44-.383-.85-.624-1.22-.943-1.756-2.814-3.31-4.954-4.947-2.204-1.8-5.736-2.245-9.29-2.06-1.616.127-3.24.42-4.847.85-1.48.396-2.957.368-4.256-.034-1.3-.402-2.42-1.184-2.963-2.377-.543-1.192-.374-2.583.47-3.844.846-1.26 2.38-2.376 4.32-2.888 2.11-.557 4.283-.944 6.497-1.133 5.144-.535 10.792.503 15.64 3.842 2.695 1.886 5.423 4.383 7.524 7.776.465.822.865 1.655 1.208 2.493.873 2.14.76 4.233.095 5.665-.663 1.433-1.828 2.242-3.135 2.33-1.307.086-2.53-.53-3.516-1.392-.99-.86-1.72-1.936-2.17-3.06z" color="#000" overflow="visible"/></svg>