<?xml version="1.0" encoding="UTF-8" standalone="no"?>
<svg version="1.0" xmlns="http://www.w3.org/2000/svg" width="300.000000pt" height="300.000000pt" viewBox="0 0 300.000000 300.000000" preserveAspectRatio="xMidYMid meet">
<g transform="translate(0.000000,300.000000) scale(0.100000,-0.100000)" fill="#171717" stroke="none">
<path class="node" id="node1" d="M1554 2955 c8 -16 39 -63 70 -104 78 -103 75 -116 -14 -56 -44 29
-61 35 -107 35 -56 0 -82 -10 -157 -61 -25 -17 -74 -42 -108 -56 -56 -22 -74
-25 -158 -21 -107 5 -137 16 -208 81 -34 32 -42 36 -32 18 7 -14 20 -32 29
-41 17 -18 162 -133 205 -163 15 -10 24 -22 21 -27 -6 -10 -170 -73 -249 -96
-109 -30 -298 -7 -358 44 -9 8 -22 12 -28 10 -15 -5 72 -89 131 -129 24 -16
74 -41 112 -55 37 -14 67 -30 67 -35 0 -4 -13 -15 -29 -23 -39 -21 -125 -117
-150 -169 -14 -29 -34 -119 -56 -260 -19 -118 -43 -247 -54 -287 -50 -181
-156 -332 -295 -422 -33 -21 -56 -38 -53 -38 16 0 209 71 255 94 28 14 74 37
102 51 58 29 77 31 108 9 42 -29 21 -137 -54 -273 -67 -122 -165 -227 -362
-385 -75 -61 -115 -100 -81 -81 61 35 217 150 277 202 168 150 283 340 322
530 28 140 26 223 -4 223 -7 0 -32 -21 -56 -46 -55 -56 -159 -138 -167 -131
-3 3 13 27 35 54 90 108 141 279 142 470 1 165 26 264 82 328 50 57 120 92
201 101 32 4 55 10 50 14 -4 4 -44 19 -88 35 -135 47 -162 75 -72 75 74 0 139
21 237 74 91 49 138 56 225 36 59 -13 53 -6 -13 19 -60 21 -142 74 -142 90 0
5 21 14 47 20 26 7 85 30 130 52 123 57 180 74 254 74 56 0 73 -5 114 -30 61
-38 113 -104 121 -156 4 -21 10 -39 14 -39 10 0 20 26 20 51 0 16 12 10 64
-33 35 -29 75 -61 88 -70 22 -16 22 -17 3 -17 -11 -1 -33 6 -49 14 -62 33 -57
9 7 -33 41 -26 47 -27 184 -27 134 0 143 -1 175 -24 56 -42 88 -75 88 -93 0
-21 1 -21 69 -8 57 11 74 6 122 -32 19 -15 53 -41 77 -58 105 -75 108 -170 9
-271 -38 -39 -95 -59 -166 -59 -44 0 -67 -16 -156 -110 -65 -68 -105 -121
-140 -189 -29 -55 -29 -54 26 -135 25 -38 36 -46 80 -55 74 -16 89 -27 89 -63
0 -22 -10 -40 -36 -64 -49 -47 -83 -45 -141 6 -25 22 -55 40 -67 40 -17 0 -12
-7 26 -42 30 -29 50 -57 58 -85 7 -24 16 -43 20 -43 4 0 36 13 71 29 35 17 80
32 99 34 31 3 37 8 50 45 12 34 12 49 1 91 -11 43 -10 53 3 73 16 25 34 118
22 118 -3 0 -20 -16 -38 -35 -60 -65 -151 -76 -180 -22 -15 30 -13 88 5 122 8
17 42 64 76 105 50 61 73 81 128 107 36 18 70 30 75 26 12 -7 1 -68 -19 -106
-21 -42 -9 -45 40 -10 29 21 55 54 82 105 22 41 55 94 73 119 36 48 57 107 67
192 l7 54 -64 32 c-34 17 -99 54 -143 82 -63 40 -85 49 -107 45 -96 -20 -85
-23 -149 40 l-59 59 -113 5 c-61 3 -119 10 -127 14 -62 38 -145 114 -221 205
-50 58 -128 149 -174 201 -46 52 -93 106 -105 120 l-21 25 15 -30z"></path>
<path class="node" id="node2" d="M1328 2420 c-78 -48 35 -260 159 -298 21 -6 38 -10 39 -9 2 1 -21 21
-51 44 -61 48 -100 112 -90 150 8 35 27 37 95 14 62 -22 183 -29 209 -12 14 9
6 12 -84 27 -22 4 -76 24 -120 45 -90 43 -132 54 -157 39z"></path>
<path class="node" id="node3" d="M2260 2298 c0 -21 -39 -48 -83 -57 l-32 -7 52 -18 c39 -13 57 -15 72
-7 25 14 61 14 61 1 0 -6 -20 -35 -45 -66 -25 -30 -45 -57 -45 -60 0 -2 24 19
53 49 32 31 72 60 100 71 26 10 47 22 47 27 0 5 -21 9 -46 9 -53 0 -81 12
-111 48 -18 21 -23 23 -23 10z"></path>
<path class="node" id="node4" d="M1198 2253 c-115 -89 -130 -232 -35 -331 18 -19 70 -58 117 -89 106
-69 174 -133 208 -198 35 -68 33 -145 -7 -298 -18 -67 -31 -144 -31 -177 0
-62 45 -309 59 -323 5 -5 11 38 13 95 4 82 10 113 29 154 37 76 91 156 99 147
17 -17 70 -390 70 -486 0 -160 -36 -301 -110 -429 -22 -39 -38 -73 -35 -76 10
-11 48 35 135 163 87 127 124 168 348 381 49 46 94 99 109 128 31 61 50 51 35
-19 -5 -26 -7 -43 -3 -39 13 15 31 89 31 126 0 64 -60 206 -161 383 -60 106
-44 217 46 322 19 23 35 44 35 47 0 16 -71 -33 -127 -87 -35 -33 -66 -57 -70
-53 -4 3 -1 45 5 92 13 101 48 184 100 237 44 45 32 46 -55 7 -85 -39 -94 -39
-86 3 15 81 65 145 163 213 38 26 68 49 66 51 -2 2 -50 -10 -107 -28 -171 -54
-258 -43 -346 41 -25 22 -30 12 -12 -23 22 -43 95 -95 162 -117 20 -6 37 -15
37 -20 0 -5 -17 -41 -37 -81 -37 -70 -38 -75 -41 -193 -4 -130 10 -208 22
-131 8 46 32 105 43 105 5 0 8 -55 8 -122 1 -108 5 -138 34 -243 36 -129 56
-177 47 -111 -6 45 3 126 15 126 4 0 13 -15 19 -34 6 -19 25 -61 42 -93 74
-141 78 -151 78 -214 0 -95 -24 -131 -179 -276 l-136 -127 -6 175 c-4 144 -10
193 -33 282 -15 60 -37 130 -48 155 -11 26 -30 79 -43 117 -19 55 -24 64 -24
39 -1 -47 -20 -92 -66 -164 -23 -36 -51 -81 -61 -100 l-19 -35 -3 45 c-5 67
15 144 65 250 95 199 55 292 -187 430 -122 70 -160 100 -191 148 -58 92 -21
225 76 268 l30 13 -26 1 c-14 0 -42 -12 -61 -27z"></path>
</g>
<g transform="translate(0.000000,300.000000) scale(0.100000,-0.100000)" fill="#A1A1A1" stroke="none">

</g>
</svg>